<mxfile>
    <diagram id="2DosiOkdx0Xj8iZABRkV" name="ページ1">
        <mxGraphModel dx="532" dy="548" grid="0" gridSize="10" guides="1" tooltips="1" connect="1" arrows="1" fold="1" page="0" pageScale="1" pageWidth="827" pageHeight="1169" background="none" math="0" shadow="0">
            <root>
                <mxCell id="0"/>
                <mxCell id="1" parent="0"/>
                <mxCell id="5" value="" style="group" parent="1" vertex="1" connectable="0">
                    <mxGeometry x="177" y="289" width="76.5" height="137" as="geometry"/>
                </mxCell>
                <mxCell id="2" value="" style="outlineConnect=0;dashed=0;verticalLabelPosition=bottom;verticalAlign=top;align=center;html=1;shape=mxgraph.aws3.ec2;fillColor=#F58534;gradientColor=none;" parent="5" vertex="1">
                    <mxGeometry width="76.5" height="93" as="geometry"/>
                </mxCell>
                <mxCell id="3" value="&lt;font style=&quot;font-size: 16px&quot;&gt;EC2&lt;/font&gt;" style="text;html=1;strokeColor=none;fillColor=none;align=center;verticalAlign=middle;whiteSpace=wrap;rounded=0;" parent="5" vertex="1">
                    <mxGeometry x="18.25" y="117" width="40" height="20" as="geometry"/>
                </mxCell>
                <mxCell id="6" value="" style="group" parent="1" vertex="1" connectable="0">
                    <mxGeometry x="378" y="289" width="76.5" height="137" as="geometry"/>
                </mxCell>
                <mxCell id="7" value="" style="outlineConnect=0;dashed=0;verticalLabelPosition=bottom;verticalAlign=top;align=center;html=1;shape=mxgraph.aws3.ec2;fillColor=#F58534;gradientColor=none;" parent="6" vertex="1">
                    <mxGeometry width="76.5" height="93" as="geometry"/>
                </mxCell>
                <mxCell id="8" value="&lt;font style=&quot;font-size: 16px&quot;&gt;EC2&lt;/font&gt;" style="text;html=1;strokeColor=none;fillColor=none;align=center;verticalAlign=middle;whiteSpace=wrap;rounded=0;" parent="6" vertex="1">
                    <mxGeometry x="18.25" y="117" width="40" height="20" as="geometry"/>
                </mxCell>
                <mxCell id="11" value="" style="group" parent="1" vertex="1" connectable="0">
                    <mxGeometry x="277" y="102" width="69" height="113" as="geometry"/>
                </mxCell>
                <mxCell id="9" value="" style="outlineConnect=0;dashed=0;verticalLabelPosition=bottom;verticalAlign=top;align=center;html=1;shape=mxgraph.aws3.classic_load_balancer;fillColor=#F58534;gradientColor=none;" parent="11" vertex="1">
                    <mxGeometry width="69" height="72" as="geometry"/>
                </mxCell>
                <mxCell id="10" value="&lt;font style=&quot;font-size: 16px&quot;&gt;ELB&lt;/font&gt;" style="text;html=1;strokeColor=none;fillColor=none;align=center;verticalAlign=middle;whiteSpace=wrap;rounded=0;" parent="11" vertex="1">
                    <mxGeometry x="14.5" y="96" width="40" height="17" as="geometry"/>
                </mxCell>
                <mxCell id="13" value="" style="endArrow=classic;html=1;entryX=0.5;entryY=0;entryDx=0;entryDy=0;entryPerimeter=0;exitX=0.5;exitY=1;exitDx=0;exitDy=0;" parent="1" source="10" target="7" edge="1">
                    <mxGeometry width="50" height="50" relative="1" as="geometry">
                        <mxPoint x="282" y="273" as="sourcePoint"/>
                        <mxPoint x="332" y="223" as="targetPoint"/>
                        <Array as="points">
                            <mxPoint x="318" y="247"/>
                            <mxPoint x="323" y="252"/>
                            <mxPoint x="416" y="252"/>
                        </Array>
                    </mxGeometry>
                </mxCell>
                <mxCell id="15" value="" style="endArrow=classic;html=1;entryX=0.5;entryY=0;entryDx=0;entryDy=0;entryPerimeter=0;exitX=0.5;exitY=1;exitDx=0;exitDy=0;" parent="1" source="10" target="2" edge="1">
                    <mxGeometry width="50" height="50" relative="1" as="geometry">
                        <mxPoint x="317.5" y="225" as="sourcePoint"/>
                        <mxPoint x="426.25" y="299" as="targetPoint"/>
                        <Array as="points">
                            <mxPoint x="304" y="250"/>
                            <mxPoint x="215" y="250"/>
                        </Array>
                    </mxGeometry>
                </mxCell>
                <mxCell id="18" value="" style="shape=image;verticalLabelPosition=bottom;labelBackgroundColor=#ffffff;verticalAlign=top;aspect=fixed;imageAspect=0;image=data:image/png,iVBORw0KGgoAAAANSUhEUgAAAOEAAADhCAYAAAA+s9J6AAAwWElEQVR4Xu1dCXgUVRJ+DSJXAEkAJYpxOVVWECOii7giLMeCRAhyJEYEFBKRI8pl1A14ABIwCGoQOVYhEOUSRREUYcUTjAiKyCmHciiHQIJBDL1/velJQjI93TPT3dPT8/r7/PZbMt3vvf9VdVe9qvqLMXEJBAQCAgGBgEBAICAQEAgIBAQCAgGBgEBAICAQEAgIBAQCAgGBgEBAICAQEAgIBAQCAgGBgEBAICAQEAgIBAQCAgGBgEBAICAQEAgIBAQCAgGBgEBAICAQEAgIBAQCAgGBgEBAICAQEAgIBAQCAgGBgEBAICAQEAgIBAQCAgGBgEDAAQjI+/fXk1MGLpLbttonPzfuOTkvr6oDliWWIBCwPwLyuYKKctqoaTJjslw/UpavjZblmAiZ///Xsh62/wrEDAUCIYyAvHD+ADkKykZKd8M1Zf+jv91wzRl53dpOIbxMMfUQRkAK4bl7nbr82YZ/smEPLmT7dkSz6Gu8L/NCIWNHDjJ2R+cv2LSZvaWYGPwfcQkErEGgnDXDWDeKfPTI5XJi/CrWus16VnBWWwFpauXKM66o23JvYzExB2C6ZsJfjLBu1mKkcEbAMUrI/b7nxj3LLr/iCNu0oRO7AUpFylX6oq/e6WOM0f+WvipWYfy+7KwRLCbiDEzZ/uEsHGLt1iDgCCWUF+cksehKBWzWlCe4EpEyeboO7WOsRuSvbGLWEJZ30qWMnq7qtVxfxqFJc+XYJie4aSsugYBAoCwC8ubcm+V/NP+JH7w0ref54IUOY+hQhn6zOCeh5FPkzIyx/IS0cR31e+m59JvE+NUIcVwl9kEgIBAAAvD7asmD+i3iykHhBk+nnvRvpFz0G5ipZK56Ag/PipL7J6zQ/awJ48erPUtsjkAgLBDA1yvNx6/X1XqAwVc1Vr6t2T5/v6p6xhC/EQiENALyimV9uFl5VQX1Lx99/VymaT78uNv9WTCZrF7jijQGmag0zj+aH4DytvRnHHGPQCBkEJC3fhuLNLMdml8oyoQhxXhjXr9AFwdzswJPa9PyF8kUpt/0T1hOZm2g44r7BQK2QkA+cTxSHpY8X9NXcytC2qjpRueC8lzTxPgP+By8Hfy4fc/MjNG2AlFMRiDgLwLyjMwni/I81Q5d3CZh13a58p5dDfwdS899FKLA4c8p/qVVm0/JU9gVy3rpea74jUDAdgjIH7zXAwnWhTr9vnPI92xn5SJg6j7IFZFMX62XQ9tWu2FK32Tl/MRYAgG/EcCXrKHctd03uvw+V+VDst+DBXgjTN7KSGubrttfTBm4kEzrAIcVtwsEzEGA8jPlUcNn6/b7UofMNtrv83dl/MXRvfOXul8cMzJH+TuWuE8gYAoC+JqN1O33dbh9G0y75qZMJMCHwiTugISBfE1/kUIrFGL54L17AhxS3C4QCAwBCG1nCK32IUex0HYObERr7sZLJUW3v+g6TGpszczEKAIBBQEc91/jo/k2ItTAg+9H5vUrus1r+m1enkq2eait3rj54gX1N8RqPZTAGDdG2D0JBxkzdB9kDOq3GMJ8WSiDBCFqJHe4fYtuf/GNeQNCeb1GzR1ZUb05ZnT4Rv/NyHzUqGeH9XN49YG3+Jo73te21R67+n3+biD8vy48nKGVaucSuJD78vuLS+n7lGqYsnm7YeJHm0pvgVSuGiiy/R01fnixsbJjUWFt9ZonWPrEB6ROXd41alPt9hz4iyPY1GemsAqXUv2mZ8xR6ygdV/mb3RZk0HwgH7XZU2NmsFmv92bXRjPgU/bJbuqR29ptYS/OjJcaNNpj0PC2eYy5Rb15Z6oxV0alurJXqnyOVav+u20QMWMil+FFU778OTz6gurjj5sxsH2fiWqY0XhB/8rWr+rNC7E9KSBN3009snt7c9ag0W743DMpVmvflfk+M3OVUGs+BPCvh+qybm0+keM6fAVfqr7WLaH0d6S7tUVmzXGW3Od1CFMlzD3sDxtgoseRec6mpj3vlQWh9EaTkpKyLp0/mEVEnHUSVWVwlbDkm277t7fgTbeHH+Lk5XmwS0JH/ZTEbyKb+hhcNpEK21vwsQ4ihPD3W6AaZhdL7PI2q3EFYzWv9Dyb/NOMEQ2JGvVI1eouZRyb8jKS6omqsmMQl2XI0PYRDDfJUs6cR0CydA55mg8ZskILH6KQTT1NjG0qZFPkG4fVhZPuGqiGeY01u/EbdvhgQ/5C8kTAdf5Pxr6D8vUZ+BLbdbwWG/nMo/z/k1J6ulw0lhGsZ7sPEPr6gl58oQpscJSQgPX2piOAU/vPgil31N/iXKs3hDOzucimnlI1sy4USuzkL4ydO2v19IIyHjcZI6N+ZyvfelDV76ODF/ryNbxuK0MCgzQhY6gUGXVcGpqayaDArGP3xVwZSUlLX8VUlbcqVJUvhmLc1XolJAUc+vgk9mSG602nJpCkiBcK68Ck22BnkiWqrAcj2yFiZmNX4GVMTG2eLnrpEMHw7LfjWLu7lzhZEclEpBQ9Nn7Yy1z5yIT0dNEL6fw5mS1Z20FaubY5Tj53lfwZlPG0lDWnF0NhN6tbbw9XVu9UlcNgReXDihoYlLeOn4Nar4SFeKNdckme9FBKJjt65DJ2Z+clXt90tImbNnTAm+4gr3ZH1bufazX0NoVsKoe1iN3I8s/UVTWz6CVDL5tBI8ezQwWVEIp5hxX+Zehc7PIwqutENcxGMhFZRE3vfh9hkj49Wdr5azmpbbsPva1BgikrrfuqIZu7rCc7dUSbqjK1/2y8GI/AirrTLth4m4f1SuiaDQ9ZSJdfcUqa9fq9DNSFrGatw5pvullT0mDy/VmautBqoGUwruF4/Tevx+v0xiZBa9nmfbZ//9XSE+PGSRUrUZiCrkusnrOZ41Fli/z4yBcohMB2b2+p6fd17fU6TM0ovIhf9WVeUlyPpWzPmYpsRHqaphVVcPZyWFHrFCtK5RTIl9HN+63ZSqgrGUBqEZsrfbE1ms0EiS+ZbFqkvMl9svGmI5Klm82DpuyTkVbVi7J/2KsZ/9EkGa5U5Qj7bEMbKXtpFw+9LXThYuXa/B2L+30REXnszbmpmn7f1fW3k2kpTZ/5AEzNE/6MiRfZn1LqqImwomqz1u1X6LSifoYV9YxdrKjS6zZbCX3CWbq3zwKYbOXZ4FETNN90+WfqwRTcxDlDaUNMvKhCnsim2IAeb3r1+9zH6zPmJ0q5O+pKrdt8auK0gvpoHgNtWi+PQgWafh+xnWe/101a8+n1ZFoaMXFYUcekeQvvgRXVElbUQR1W1JOKFZVoxPhGPiNYSqh6VI833QUpLf0JmHD12C13rOHK6MkZdwdvP/uoG2VewER8Gm86Q+OL/Hg9ZWA2jtdzcbzeWNPv6zPwBbY/L0JKSFpo5CbZ6Vk8BoqQABIsPsa8qqp2vKIXEu3dYxPGSPvzJLPSEmFFfQ0r6mpYUYmaVhQdnCX3WWA3qkrbKaFb4GDC/SwtWNIRJl1bxJVO8jedp8sdX3w14ym86c5RJr4RQouE6pH8eH318gRNM6tp7Oc4Xm+I4/XHpIiIfCPGt9sz3I1WeQx0W+6tmn5f+7vfgt9XC6bjZCvWAitqIR184QDsWVUryh3SOPEbWVEbweK+lA7YrJiftzGCpYS61w2Tbr303b5INmP+A14zKSg0QG+6AT1yYDr+CBPyRt2DlPghJ5ui4/XnR2d4NbNcL4Xfcbz+L2n5qtZOTCx2w0KNVnkMNDtruJcYqCveV7fedpiIsThw603xPn/2wN976OALB2BPwYq6EgdiH2taUetX9aADNuSxPunvmEbcZ3slLPoyJiS9DlOvCktMma75pjt8sAlMyM0wJd/U6y9SpTtqALcjrWqpruP1SVkp0raDNXG8/pERG2HHZ3C/L7bJMcRA5/Avn1YMdO6yHgglXA8T0RC/z19MYEUdwoFYO1hRd7FKVbStqGnjn+HldgZZUb7OO2SUkBYGU+8PmHzD6cifNY39WtUZd/uLq5f34v7ijMw0NWA4e1rqkDk4Xt/BDuy9VtPMik/KYiCowvH6TF/BDpXf8yY59/V05b4WnI1S9fvcMdDBo57lMdC4HsvttEZYUetwQBbJMlE07S0F7mIriupa/bKi/F17SClh0VcRgXuYgC1hCnaGv3hW1V90J/s+P/o5hWSpW0mgcLw+lDLy2YpFAzT9PjpeR8W8lPHiww72+yooMdBjbOMn6o1W3Xmerdu/i1BBXRykPVUiBuqvLJp2n3R//3mMkjx6D3hJhxVVX7GiiOFBJdXH2KkGSwkNiZPBFPwA/mJVNinrEa9vOsrYpwyOxC4rkNGxDWZHP+SlnsHx+nSdx+td+PE6BaONuWyXyI0EiPvoCF9XDLRmrZ8oNIAQQTeECpDCYv8LL4m/pIlThuJF2gBW1Oc6rKieOJg7BStqjNmrM1sJ1ZTNECUs+jI+hFhVXl4lFp/0mmay7+7t17Mhvf+LsEeE5vH6mMmjlOP1983eiGA9n3O/UolRcp/5mrmvdPAyY/59CAnUp9BAsOYcyLh4ke6lgzTKV0XequswydNVbEVN4laUibWuZithIHj5dC9MxHMwFQeRyYiM/C1e33T0ZfRWTtOx+1J+vD40dYpPkwjFHyc/kMP2blMvMXKn37lzXxOSskNxmaXnTPmqyFuVYEUNUV7cnq0TkpXKsEr/hReVSZdjlLDoqwiTERn5NyJDozt/01GmvtblLqepW28/0qpaIHO/p8nH64ZaAlrL8/r3BUu6qJ56Ei7lyufB77uqVO5rQEPa6WYcsL0Cf7ESXtw/eEwKocnSQd/eE+WQqFDXjLk7TgmLlLFTl7f5my59uutNp1YyRXmqlFY1d1kvHK9fg7Sqb80A2rbP9NZVkayFc2cj2KD7l+PEsJlt1xDAxHASHMGGDp7Pftjc1KN15H62Cye8lYy/HKuERcpIbzo65Wrdfk0ZRaTUqkEjp3K/L67HYuPhdcATKSNpx/ctcWK4BaGc1+BDVnTAqvgSEKR/HCGsM6iGuVe15tGCxTpeCQlDmJZn2L+7ZbOz+OKVvE4hkf/ue/5rAc6lh7CPOapn8e6464pFDyKkU4DQznA9t9n1N0XVMNPGT/CJbMoba2AAiw2WElovhOfPey4GLix0VG1fALJQfKunhHn6azHJ0jT0E6H+kP8yZDyLHkJBeJwE79ashlFbv0nzDJYSmrQcvx6rzgXq1+N03WT9S0jXtPAjEsAaka4ECG8kS+XLX4oK+jWoqNhEvSP0Pj4Yv0PQvRrIpuZQEB7VMA28VsPQumtEnlA9pDFhAcFSQtsFq03ANjQfSSfKrW7/gFckdO01TzPuug2F1Yi98capFKu12YVg+2MIup8G2ZR2VlTT2C/ZD0eiWf/kZ/lhnUVXsJTQouXpGsa+XyVd0zfhRwUFlXlFwvSZAxCyuZFdXf87zaLZnDlDQbL0h12oKlEN0436gKAaZopmNUxh4VlKgUQQ/zZkAB3miR8WXkIJLQS7xFB2V/wiPxkhmy1I2WuGEE68V5Il8heLqSrzUIFxRzCgVcimcilFkVWuqk02hWC99OOhqpQCWWK+lp4TCCUMhqTYf8wyLwmEcJZJP5+XQLL0uCb1yIXCqqjA+B9Ilj5GgNsSkiWlGuY1hWzqJs1qmLi+8/DFq8aD9WUvS1+SQgntrxDBmKE6/UjqqEnIoIkCVeVyHSRLbVGJTyRLRD1iWnxRIZuiahi9JMONpMyXByDVMc9HcE1RznBSQlMA9HET3T+301w8LcHriTH8phOonO/BqSoja/+i6S8SKzkq81Gh/4CfeHm8jZMM33BNvi6yqT/AOkJkUy6SYaOqYQxZTjgpoRpgdlcIQzbax4foOr3mVJWfb7lKF1UlUY8MTZon39bsIKgqY32cz0U/LyKbIpLhC4VVdFTDjJT2nvCFbEpt/abISrCU0JTFaGxsMMYMRNZC5l6FqrICUgDVqSrdJEsnj10FkqWvUbn/oa8kS9zvSxs1TTfZVHE1zFQ7gxksJbQTJsFQzmCMaSrmvGj2iXFEVXkVqCo/1CRZ2vhJe4VkaawefxGhjwcRAjmrk2xqDycZNr4axpR9E0poqmiG38NBsvQLqCo7gGTpDpAsHdWkqpw2fiJrUK0A+Zz3ekILoY42nGwqtf9rOsmm7qW+FUaRDFuxg+GkhKa8xazYpCCMETBWIFnaAJKlK1CJf78mVSU1DR3Q4y2Q8u5DfmdzWi/V7iHE8T5CHZ/oIpsakT5GIZtaEgS8AhoynJQwIKDC7OaAlbDoGDghaT6oKiuBqnKGJsnSid9ikN/5LfJRv4XfdwjduDrzbBdvLAjUj+LokSuIZNhAsqmwOJgJM5kOueUapoS0ck49MiFjGLGU6yJZ2r6luWbDnZq1DnGSYfSjQMjkaMghXGLC4ksYyrtn3twNVcKir2KDRnsUkqX2+Lc8VX+R6hc9XcSCQFUO6DsBsqkrg00ybBT8QgmNQlI8RzcCyNNcC/byaiBZSvFKVel+YnGj1Qzu91HfCQddQgkdtJmhthTOYp6H1gbEaq5GPUj/3rLNlwh9xCAEMtpAv882cAkltM1WhOdEeGsDsJojpSyujCKS+flkxhT0lbgNoY8DFiJkijmuNn+hhBburBjKCwKXX/FTmb8WosD48ivwKbTNpSudz9fZCiX0FTHxe7MQsJMsii+hWbtso+ea8ka10fqMnIrjsbLT28fIjRPPEggEgoD4EgaCnrjXcQiIL6HjtlQsyK4IWPr1sRMIwTJHHf92s9Mmh/hcHC8rwVLCEJcLx08/GF+lYIxpi40USmiLbRCTsBkClr4QhBLabPdtMh1LhVBZs9qYwhy1iVCIaViLQDCU0NoV+jeaKS8E8SX0bzOcflcwlDAYY9piH8NJCU15i9liF42fRLhjZen6w0kJjRdV5z7RUiEMIRhNwUUoYQhJgIVTDUbPRguXpzHUJZf8aeVkhBJaibbNxqLmmWWmVA4NiU7/XsNmU7V2OocPXcPQA9XDJb6E1u6Es0cDme4g1gjNM6mdWcmL+F2+WNcSXJ+/gPPzTmejcPHq0FatvhzX4Wv2xrRBvDV42UsoYTgJhFlrhWL9E01UToFM91XVHg4kgAVno8H5uQ509Za1NzNrzVrPBb1+RXnU8FfQVm0P2/F9LKvpoZvbcf4UUyxHUx6qtWjxd+sRAJlutEKmux5NVKqrKqB7asT1SZyfGz9xtzebBLp6FRo0Q9ZjyldGa2awCAayiIgCtnR+Cl+vJ6a383ARo0DdGBNzROt5/vxdKKE/qAV+j2UxMerzgP6A6SDT/cUrme6FQs+rqljFpYyzpoxBe7Nz8uKc+wJffvCfQKY2LIIzsAhme22nffIXxn47xNg6tA036QqWElomhCbhFhKP5QqDvoBQoHGqZLqkfMRoVif6ECNiJfrP01W9FmPU3iy5z3zQ1e9He7ObQwKEUpOkzsFg+P6cdWuzDhZBhGZbtccmpEnHmURtw81ab7CU0Kz1iOcCAVIQ6gNICsMVhxTI00UKd+QgkekmoInKlWznsYpob/aMDrr6q9HebJM8qN8StDerEwqgw++rAotgHHUOZttyb9Nsp92x+5ug168Nev2JZq9PKKHZCHt+vimWABQiUu6fsJQUhFEfQDr59NTHwU2mO3jUswqZ7iKaJjg9/wS35394e7OWbT7WbG+2flU82NCOypkZacGBUd+ovENwTEQ+LIJ0TYsgsvYB6kCMtmp9QK+vYhboG1fvr4QS6kXK2N8ZroRQhNFQiOPss496qB4wkOn5HUzPlm0+5GS6aelPeSLT5e3Nspe2Q3uzu7Dsv3S0N3tOjomQ0d6sp7EwBfY0fhIc2+QodQjW1VaN6PU/3xJDHYgDG9m3u4US+oaXUb82TAkh+L3kKCazaeOf12yiUqnKb1CsO6FgHfSQ6aK92TrQ1VdgmWjQSX5j/mnP6ydzN6ImtTdbLLdttR3tzW40Cih/nkMdgBFaobZq6xFqqaPq9xVbBBODSa8vlNCfXQ78noCVEILeAgK/C4L/pqbfRwo0Y34/9AusA8X6n6/Tl+7vPwftzSqyPgNnavqLhw9ei/Zmm+Vhyf9FRs5lvo4VyO/5SfCE8eOpAzBCK+pt1dwWAXUUPnqkLiyCtGDS64eTEgYs+IEISKl7/Z4LBLuGnDIwG4L+DTt8sKGm35eYMh0KVE1KSHojkPmDrv5PtDdL4e3Nrrsxl38ZPYU1KM5GIY2Vb/VjkVEn5RmZI3WOG1CcEBZBPD8JfjXjP5oWQfWaB2ARtKWOwvD7TIn96Vwz/1k4KaEvuJj9W7+UEAL9GAT7d7Z6eYJXv48UpGns1/D76kNxhkOB8oxakETtzVasuZktWduJFRYWqvqLlHVDyvj86Ay5fqQsf/BeN405+KWEOAmOpQ6/sAiW6LYIvtgaA4tgvVGYBPocoYSBImjB/RDgOPmqCjIEeorXwDIpX7nyp6AgHdEHsCX8vrL9HQyaL9qbrZZ+PHQJ2psN8drejFLAKldlLLHLCrlru2+Qn9lAZQpqSujx3/lJ8KB+b+Ek+GtGHX61ToKpUzC1VQvQIjAIvoseI5TQDFQNeiYdcMgdbv8OAvw2o77unnIaaSw6MKFTTyiE9N2+y6AgawyaguZj0N7sFUbVGHF95/I5UIpX6YvCJKQku7e3QH7mbuRpvkxxu1I/010+VXQS/NG79+qwCDbBIvgbdQoOpt/nDUihhJpiZsoPvJpeENCqcuqQLDrgYAf2/l0zsByf9Br6/FXjChGES4qMypMyXx4If7ERu7r+j5r+4tL5DyNfM19+LWt4ien+pTL1onw6WAR3c4tgaprrJNhzpYMrA6hc+WOKRXALLAL8g30voYTB2RvVtz4EczAENI+tWJSs+ZZveN1WCH4T9PcbZKTf5y8k8Bd3S2s+vQ69Bu9heScZo7xLT5fbXxybMk2+Nvo3xPNuY+XxtfT426r5MGEbwiLYCovgHV0WQea8gbAIaltpEfiLGd2HCs6wv/w6EAgQtbJjNq0ny5WqnGDjh9Xkyqd2kWBXqXkBgt5D6tRlBVvZKMCpGH87nxcScHCQlMqGpr7A6kd6/mqRiXqhsBbyOD9njZsdwsEKffWKtZFM8OfHv8R2bIlitaNdJq2ni0zgH5Fk/fjIV9kT40ba4YXkC6riS+gLWmb+tlx5CYHlmpp+35jJY6Sdv5ZXBN3MGQX8bGloaib8xQjWsfsiTX/x9MlomJAXyyP5kqdORHHl81Ri5E4+b/L3b2ERNJYmTkkONQUkkIUSBixqfj3A89fXU54nveXpwKNrrwUQ6FoQ7Ml+jRikm+Av5iMPM4FRFk3dettV/UXX2suGbjxhQr8ki+CPfJlCJQiZtIApvCtISwx4WKGEAUPoxwN++/VKRlwu3i73W/7q+j9AgG+Wps9MgkC76rtD8KJSIFRqXM/mIqhOlRvFJVO+uQPuk+D06cOlvSfKUagkBOG4aMpCCS3cQRxA3MWpJbblNvNoXrnnQgJ6Cokcc5f1wkFHUwiwpQnFZkIixfVYRvV5bET6SOXgBo3pmUpFcYmZFFsEC2ERROIkeLqZ87Ty2UIJLUCbF5Imxn+IA4i1nFqCqtU9Xe6E4hHpT0o/n5cgsIstmF5QhkCd3lR2/4gZiHFWxATUY4Rui6BuvV2wCG6CRZAIiwBHr865hBKiBtas7SROFhSSPs0LSTdtaK8Z77uz87tIKI6GgD5n1pzs8FzE+7rKjeucYTlzHkasj76EnuWQFLBc+dOwCPrClG0Mi2CzHeZv9BzCKUThV76mv4CDWiIRCcULEPNz5VB6ukjIyD9q0vxntvndnqhj+4rNet3fIW1/H1EKsuHJCxHva4VwxAXFIlCXQTLJM+c/Cosgx/aLC2CC4ksYAHiebkVCMXF2HgG1xALNhGIXtQQVktbjCujQC5UfrgwgohTcvb2VYhGUlD2yRsgkLWuVnD/veBkN1gIt/SpZIdtIKI5CIekqJBRvZPlnLtdMKB40clIwC0mtwITG4BlASGtTyQAiObgEfvIl8A1JFj0d0DhOVkpjHywltEoG9IwTkE/IC0kzMx5HIekxFJJ20qSWuOWONfD7rgCXy+N2TSjWA5rWbxS/709kAM30kucp8RPSwsIzbOCwF6CIZJrqTuTWmkOo/F0oYQA7hULS3qxBtQJQS0zQLCSllDRXIWlHFJIeDWBYW99KpUooWfoSft+7rELFCpoZQI9NGIuSqOrs7nvmIjuG1lb6yye+hLbecd8mZ9hmKtQSO1FImsMTir1RChZTS0TZqZDUN+i0f80r/lOHzKRSpRJ+X9kb3fE+SmWjeF/qqOf5jwphkrouw/ZJe9b2+IX4EvqwD6WoJRpp+n2JKS/ZtZDUh2Vr/hR+XzKv+F+xaLBm5YcrA+gmSmVzWrxPEyiVHwgl1Ikc50rRTy3xlVJIOtThft/diPedg9+XpUklT6VNSFlTMoA8xfsC8s11bqMtfyaUUGNbiBuFODWJK0WzkBQ17koh6a12LyQNRBp5xX/Xdht5fV+Fipdq+n1jJo+U9udRBtAyL+OGnRnqxkIooYpU4IChEQpJfyBuFM6pqU0t8TA4OiNCpZDUHyUkCkNQGc7mFf+7t7fUzADq2H2xUvkxVcd4akro+C+kUMJS0gFBi8ABw2wcMOwEtcR1moIWnzRboZbI0iFoIfsTXqBLOZsr3xqo0+8jKvlePlR+iC9hyEpH4BMvikvhgOERCNoZHDBoC1rD6zbzQtKMFx8KxUJSvbBxpjdQFsIcf0GX35f9XpzTKj/0YuXv78SXsHr1fJQYteYHDGNBi+eNQMhVSMpALdFNWrn2plAuJNUSGB6G6XD7Ns70RpSFWub4mMmjuN/XCX6isZcwR43F02ZPo7Zh98VvQonRp/yAQY3DxF1IOmbyYygkJUF712YrMWw6PAwDCnvO8H1g7/Wa5njXXq8rft8UwyYRZg8K7y8hUSecPuniMPFOLfEGBC0K1BIvOFk+4Pc9ysMwRGGv1jq6uOJ/u1Lx/4APfp83+IRP6GThUtamn9eluJB0p1JI2g+CxnOqnHiV8PumaprjFO/Lfu9u+H3XO6niP5j7Gt5fQk/IE7WEK7DcG4WkTZxaSEpLV/w+CsPo9fseU/y+lcEUWqeNLZSweEdlTj40In2MElh+y2mb7V6PEu+bp/h92mGYrr2yFb/P0eZ4sPY7nJTwPPvjvDrO585KLDFlFhKKQ4pS0FfBUfw+ivc9oMPv+1Hx++4zyO/zdbph8fvwUcJWt65n3ggDiXwpZ84g6nWgo41XyAkH9/tc6Xfafp87DANKewv9PnEwY7FUWR77QUxvL1uc09drGy/qkUClSdTGq22rH+EzNbMYF8OHuyjepyf9juJ9Dg/DGA5ygA8Mny8hgJLu7ZODqvbLQMu+RJOW/fDBJvCZtqAH3jLqhRcgzpbfrvh9vsT73Azfdov3Of4LGVZKSJqAqvZTyGm8l3wdtPHaqdnGa/2q7qCuOI5e6M8ShaHl2uTHgCX8Pj3xPgrDhDzDtx8w2eYWs5XQcrNTL7Lk6yDW1QQxr+48FU2tjRf5ihS4fjXjCVAYnuNUhja9eNmVq6Ovtt93/hx1drqHMLDQ77MpcsGdltlKGNzV6RgdKWhvkw/E0qcP8+ovEoUFpbmBylC+rdlPyDf9p47HW/ITpaPv97zsSk9HX/L77NfZyfFmp5owhL0SuoFBb4MZiIVVZfFJrrbPRElf+nK3fT557BrWus16UBx+CIp7aGZwLvh9NeWUgQuUjr5NdaTfueN9dvP7ggOgTUYVSlhiIxALO4vSJFfb56ax32j6ixs/aQ+K+wNy2qgXifrQyj1V/L4TbPXyRM14X8PrvhfxPit3x7exhBJ6wIu3fV6+KhZUFf/Gn89xZfR0uf3F7Kxh8BcL5DfmPeQb/L7/2o94XxzKrm4Qfp/vWFt1h1BCL0iDqmIVKCsqscx5g7giFvfUu/gu8hepEiO1/yy0PvtVXrf2X0ZvoOL3uer79MT70qc/osT7jK7vM3ppYf+8YCmhbU9NPUmEdH//19j+vCpIa3tJ1V+kG1092Guznu3WyN07fwmemoaBShhilLXh9y1U/D7t+r64vnN5nudDKS8HOra43xoEgqWE1qzOwFFAYfGHNCFjKKgM67Fb7vhYM9i/LbcVeGp2yaOGv4oDFL+C/aDXH40Y5a/w+/rq8Pu+hd8XK2W+PFDkeRq48RY8ymwlDKkvnh68QWX4M6js2xGlPatZ6xfVwxu3v7h0/iDWKOo4+GuG6Hk+/Qb0+r14vG9q2vOa9X3n0d6P6vtWrm0Bv+8bvWPY8HeOkxW9GJuthHrnEXK/I0p76YutV1Frs1I92C9eC+Wjkpk6fthLIEy6QI1S1Bar0OvvAr3+m7rifenTUxDvI7oNUd8XchJUPGGhhAFuHvJRF4LqviIbjO66avFFGoOIkipXRblUl3dBoPQ9FO4G99AwV6vD78vm9X2HDzbUjPfF9Z2n+H0zA5y+nW4XX0KTdkMNWEcBDqr7P6W09CeRHB7J7uy8TNNfPLC3KRRuK/zFLJipQ8Hrcgp+X4IOv28LYphN4PcNcKDfFxay4knPgtMuu1Il6lPuuAvJ4eDFYPH4yt3Ehg9+i239qgFPdStNIlUBeeCUj7p0fjIr/FO9nTYhRDmt5ZEHQDSLxPK2spHjcOMLKl8+7PoSujfSenO0Mnyk99/pi6P3Os6UJlRqwKwEP01DnhxOfDVqyeHkL6q1VXPTLKZPH6LwujiWZpHLQU52Mqvh1yFyyIuR9UpIX4HtW27C0ftR3uHWwRdPDgchLhszebTX5PCSGLj798Unvcr79z2U8oqDIaKT4N5yFHrVZ6O9Gr2Uyl6O/0Kaq4QR1fI9Ukq4zTF0uOV0EiuW9XSyoIGvNIMnh8f1XcCVkSgVPV2UldPwum/g912LHNZkJ/fvg8neHOwFdBKcw012TxYBcQJVrXrGybJhydqQOfIpvemQzuX5v6b1ZP53F51Ec0smFcRBKItG/kfzwzKtuyQmhMEH790TxKlZMrRyEvwGTmFk+dpodbloXMclF+cKKlgysSAOYu6XEAtDIvTtOL6foVke5KKT+BZH9YuImiGImJg6NCWHs+Y3f8koyF7yAgkVma+mDh7kh6PyY4RyEpykeRLcNPYH9sORK3Hy7IUiL8gLMmh405WQ5ol0r2FKedDXmuVBq5f3oRZcvDOuU6/Cv0KCJsMo+PGFv1vp7JSpo9FqAapXOuPl3RSnzYeMmoOdn2OJEnJFdJUHteTlQfQVUCsPIuecju/RGZc2jjbQzgD6ObewqCKH6V2/qKOvns5Ok7IeQdVKZVSvfOAnriF5m2VK6EaHlwch1YpNQi4lHVLQUbyny5VhQvSD7yDD5Dts6N9CEmHPk0YnGude3O9LHZKFBPY9ujr60klwXl61cK38sFwJi5SRjt7z8iqDTmKWjgyTv2ND9/KKhLw8aGbIX479EiIDKIX7fSsWJWv6fQ2vc2UA0UlwREReyO+qnwsImhJyEzUiogAbMJj7i1fX367pL1JFAjbLl4oEP3Ex+zZHpe0RWChk7oDTznw0Wn1Fs/LDxfB9Dyo/boSbstNssO3+/KAqYdFXkfxFtNrSlWFC/uLYlJew4XnY+HZ2B1hlfo4JQMNNaCDHdfgChcyrkXpWRUej1dFKxf+KEN07w6dtCyUsUsbiDJMxXv1FKg0qX74qNv4jxCG/IkEwHBlzHxjyX0JyC0BwlQk3YTfb/u2tmpUfXXtRo9VaPHFBXBchYCslLFLGoamTsWE1QFe/WNNf3JZ7CwkCBGJGCPmLIa2EILTqz2Lgw+XMGcFNTypgLn1d3GiVGL6p0aq3ljxhq5q2VELuL0ZGnQZdfS/qlMsia+/XrGDPznqEBAMCMjBsd9PkhYPw+A5k+ZwAodVc/uXznOvpIsQ6cpAarfZUGq3mmjy1kH68bZWw6KvY7MbN0udbrqHOuV4r2IsZz2ZDUH6HwLSx8c6E1JcQBMdXyYnx74Pw+H/Ie62p6vcRYTKFnUakj5WOM0mK67HUxntgm6nZXgmLlDGux1u0sdjgJ3QwntWAwHwChuzVJEC2Qbt4IiGhhNQAR35u3HgQHB9kmzZ05qZn6dpIWpO78oMKmo8eiUaj1edtiLltpxQySlikjKmjJmCja7HW7d/z6i+SwGz8pAMJEASJOipZypBt2x3XOTE0vulLDXDYrCn/0fT7Imv/xDbntpJmvR6PVLPDOocQP1MQCDkl5P4iWpVJ8xZ2pY0H49nPmv7irCnUUakAgnWfTXbetl9CeXNuLBre7EPjm4WqJUYEotvvA9EV3IX6UovYjTbBNuSmEZJKWPRVxMaD8aweGM+SNP1FV0el+RCw3RC0FiG3UyZPGEwHUXL/hGWsRezX7OSxGNWQg9vvGzRyAgiuKnGiK3EFhEBIK2GRMt7bZwEE4lI2aOQkzZKpk8caQNC+QQfepRA88NeH98X9vsyMMWA6OMY++6i711QzOnRp2WY1CJD/Jj0x7gmUGTmSK8hqiXCEEnITFXVnEIzHISAxEJR1qhXs7qr+9at6QPB+gwCOtRp0u4wHRoN47vdNGz9J1e+jyVLFS6UqR0B4fJeUvbQTCJDxD+IyCgHHKGHRVxGtyiAod0Fg7uSCo9VRadr4ibyCmwTSuiuoPiFvLtO21Q5QSyzR9PsIvxnzk6TcHXVBeLzOOojCZyTHKWGRMiKmRYKDjkoPckVUK5lyd+CFQCoUGzc6dfsvaip6+GBjTb8vMWUaGuFESAlJC5yKiR3W5VglLFLG+/vPgSBVZX0G6qXY2AyKjRynUWyAqSAVJUb6moo2jf0clS0NwYiQikoXlDyIy0wEHK+E3F+MiDirUGw0RgfejZolU6uX91YoNh41E3wrnk29L+SYCBlMBS9oUksUFuaB+aAjGBBao8RojxXzE2Mg/yGcQIBg7YKAtYKgdWKFoL7WptiYqlBsdDMYJ9OLejmrGxgJqPeFrqaik7Ieln48VA3MB2sMXqt4nAYCYaWERSZq23arIXAVQbHxiE6KjRUQ6K3EmWJ3iSIzWqGW2MUO7P27ZolRfNIchVoiy+5rc+r8wlIJi5SRutnmoQNvXN/XNUumDuy9gThTQLHxCgS9RoACYcqXEIwDD5MZrZNaYrNCLfFgOFNLBLiPhtwe1kqo+It/oMvRAySQOik2iEPld86l4v9lqBISwwDIhM+AceBlTWqJ8+fOg8EgDtQSNwlqCf830Mg7w14Ji76K4DpRKDa6MeJA8dbExUWx8QooNs5AAdr7sSGG4M6pJbp3Xk8MA5hDhA5qiUfBdHcpSIbf8WPO4haTEDBEGEyaW1AeS+3HiAMFTVxG6aDYiIACfAhF+MxHio2AvoQKtcQUTi2xLfefmn5fx+6LwFQQBWqJzKCAKgb1ioBQQhV4ILBTFIqNNzX9xW25/1AoNl6EgnjgeigziN9KyJkDiB4wZ85jmiVGdevtAjNBLBgKEsBUcELogj0REEroZV8Uio0+JMjwF3dolkzlzBkGio18KEo/je32WQnBFHA7GANOglpitle/j0qMqCfi3GW9QC3RmHol2lP0xKzcCAgl1CELvOnnmk+vJcH2WjJFnCvEvZLa/79ybJNfiJNFx+O9/gTMAPVALfEemAI2gFriMh3UEmPYzmOVQC2xONCxxf3WICCU0AecSbAVio00TYqNgrPRxMlC3CxQpOhSw6g0KCz+lUIt8RSYAQ6AWuLfmtQSrduvVKglJosSIx821QY/FUroxyaAQ2UiBD4KFBsrNSk2iJslJuYXUGw8XYJiw2u7LzAAJCjUEk9r+n2RtQ+AYeAWMA3cLagl/NhMG9wilNDPTYDAnyDBVyg2DmqWTM2a8hSn2HA1Ai3b+DIKVPKbc29GA9EdYADI5manWj/7YmqJBFBLxIBaYpOfyxC32QABnw8IbDBnW06BEyMRL0tEhLryECHuqSOMVanpiTD3AhS5HKsNy5UKjz1dRC2x81fGQFzFRo59VpidthQFnycllNBnyNRvgLl5CZsy6WlGFf6N63hmpvZnPFLebSDTTYxfyya88KCobPcHRPveI8xRA/cGX6a/QLGRplBsrFel2PBlTBe1xG/EFADGgPZCAX0BLzR+K76EJu4TQhR3seSk5TAzq6uGFtTG5/E+tOzLnPeQdD9ig+JyLALiS2ji1oKT5WPpu301oEgD+cENKZbW5aYUTEyZzikFhQJqISb+LhDQhwDS2Sqgc9QrYHiS5cZ1ZGS/XPxf03oyJ5xytXprrO+p4lcCAYGAzwiQgkHRNnGFI2W8NtqlfOhyi4qMzj4/UNwgEBAI+IcAKRyyaTaA4W0fck0H+fcUcZdAQCAgEBAICAQEAgIBgYBAQCAgEBAICAQEAgIBgYBAQCAgEBAICAQEAgIBgYBAQCAgEBAICAQEAgIBgYBAQCAgEBAICAQEAgIBgYBAQCAgEBAICAQEAgIBgYBAQCAgEBAICAQEAgIBgYBAQCAgEBAICAQEAgIBgYBAQCAgEBAICAQEAnZG4P/mz9TE/jGMFQAAAABJRU5ErkJggg==;" parent="1" vertex="1">
                    <mxGeometry x="253.5" y="358" width="42" height="42" as="geometry"/>
                </mxCell>
                <mxCell id="19" value="" style="shape=image;verticalLabelPosition=bottom;labelBackgroundColor=#ffffff;verticalAlign=top;aspect=fixed;imageAspect=0;image=data:image/png,iVBORw0KGgoAAAANSUhEUgAAAOEAAADhCAYAAAA+s9J6AAAwWElEQVR4Xu1dCXgUVRJ+DSJXAEkAJYpxOVVWECOii7giLMeCRAhyJEYEFBKRI8pl1A14ABIwCGoQOVYhEOUSRREUYcUTjAiKyCmHciiHQIJBDL1/velJQjI93TPT3dPT8/r7/PZbMt3vvf9VdVe9qvqLMXEJBAQCAgGBgEBAICAQEAgIBAQCAgGBgEBAICAQEAgIBAQCAgGBgEBAICAQEAgIBAQCAgGBgEBAICAQEAgIBAQCAgGBgEBAICAQEAgIBAQCAgGBgEBAICAQEAgIBAQCAgGBgEBAICAQEAgIBAQCAgGBgEBAICAQEAgIBAQCAgGBgEDAAQjI+/fXk1MGLpLbttonPzfuOTkvr6oDliWWIBCwPwLyuYKKctqoaTJjslw/UpavjZblmAiZ///Xsh62/wrEDAUCIYyAvHD+ADkKykZKd8M1Zf+jv91wzRl53dpOIbxMMfUQRkAK4bl7nbr82YZ/smEPLmT7dkSz6Gu8L/NCIWNHDjJ2R+cv2LSZvaWYGPwfcQkErEGgnDXDWDeKfPTI5XJi/CrWus16VnBWWwFpauXKM66o23JvYzExB2C6ZsJfjLBu1mKkcEbAMUrI/b7nxj3LLr/iCNu0oRO7AUpFylX6oq/e6WOM0f+WvipWYfy+7KwRLCbiDEzZ/uEsHGLt1iDgCCWUF+cksehKBWzWlCe4EpEyeboO7WOsRuSvbGLWEJZ30qWMnq7qtVxfxqFJc+XYJie4aSsugYBAoCwC8ubcm+V/NP+JH7w0ref54IUOY+hQhn6zOCeh5FPkzIyx/IS0cR31e+m59JvE+NUIcVwl9kEgIBAAAvD7asmD+i3iykHhBk+nnvRvpFz0G5ipZK56Ag/PipL7J6zQ/awJ48erPUtsjkAgLBDA1yvNx6/X1XqAwVc1Vr6t2T5/v6p6xhC/EQiENALyimV9uFl5VQX1Lx99/VymaT78uNv9WTCZrF7jijQGmag0zj+aH4DytvRnHHGPQCBkEJC3fhuLNLMdml8oyoQhxXhjXr9AFwdzswJPa9PyF8kUpt/0T1hOZm2g44r7BQK2QkA+cTxSHpY8X9NXcytC2qjpRueC8lzTxPgP+By8Hfy4fc/MjNG2AlFMRiDgLwLyjMwni/I81Q5d3CZh13a58p5dDfwdS899FKLA4c8p/qVVm0/JU9gVy3rpea74jUDAdgjIH7zXAwnWhTr9vnPI92xn5SJg6j7IFZFMX62XQ9tWu2FK32Tl/MRYAgG/EcCXrKHctd03uvw+V+VDst+DBXgjTN7KSGubrttfTBm4kEzrAIcVtwsEzEGA8jPlUcNn6/b7UofMNtrv83dl/MXRvfOXul8cMzJH+TuWuE8gYAoC+JqN1O33dbh9G0y75qZMJMCHwiTugISBfE1/kUIrFGL54L17AhxS3C4QCAwBCG1nCK32IUex0HYObERr7sZLJUW3v+g6TGpszczEKAIBBQEc91/jo/k2ItTAg+9H5vUrus1r+m1enkq2eait3rj54gX1N8RqPZTAGDdG2D0JBxkzdB9kDOq3GMJ8WSiDBCFqJHe4fYtuf/GNeQNCeb1GzR1ZUb05ZnT4Rv/NyHzUqGeH9XN49YG3+Jo73te21R67+n3+biD8vy48nKGVaucSuJD78vuLS+n7lGqYsnm7YeJHm0pvgVSuGiiy/R01fnixsbJjUWFt9ZonWPrEB6ROXd41alPt9hz4iyPY1GemsAqXUv2mZ8xR6ygdV/mb3RZk0HwgH7XZU2NmsFmv92bXRjPgU/bJbuqR29ptYS/OjJcaNNpj0PC2eYy5Rb15Z6oxV0alurJXqnyOVav+u20QMWMil+FFU778OTz6gurjj5sxsH2fiWqY0XhB/8rWr+rNC7E9KSBN3009snt7c9ag0W743DMpVmvflfk+M3OVUGs+BPCvh+qybm0+keM6fAVfqr7WLaH0d6S7tUVmzXGW3Od1CFMlzD3sDxtgoseRec6mpj3vlQWh9EaTkpKyLp0/mEVEnHUSVWVwlbDkm277t7fgTbeHH+Lk5XmwS0JH/ZTEbyKb+hhcNpEK21vwsQ4ihPD3W6AaZhdL7PI2q3EFYzWv9Dyb/NOMEQ2JGvVI1eouZRyb8jKS6omqsmMQl2XI0PYRDDfJUs6cR0CydA55mg8ZskILH6KQTT1NjG0qZFPkG4fVhZPuGqiGeY01u/EbdvhgQ/5C8kTAdf5Pxr6D8vUZ+BLbdbwWG/nMo/z/k1J6ulw0lhGsZ7sPEPr6gl58oQpscJSQgPX2piOAU/vPgil31N/iXKs3hDOzucimnlI1sy4USuzkL4ydO2v19IIyHjcZI6N+ZyvfelDV76ODF/ryNbxuK0MCgzQhY6gUGXVcGpqayaDArGP3xVwZSUlLX8VUlbcqVJUvhmLc1XolJAUc+vgk9mSG602nJpCkiBcK68Ck22BnkiWqrAcj2yFiZmNX4GVMTG2eLnrpEMHw7LfjWLu7lzhZEclEpBQ9Nn7Yy1z5yIT0dNEL6fw5mS1Z20FaubY5Tj53lfwZlPG0lDWnF0NhN6tbbw9XVu9UlcNgReXDihoYlLeOn4Nar4SFeKNdckme9FBKJjt65DJ2Z+clXt90tImbNnTAm+4gr3ZH1bufazX0NoVsKoe1iN3I8s/UVTWz6CVDL5tBI8ezQwWVEIp5hxX+Zehc7PIwqutENcxGMhFZRE3vfh9hkj49Wdr5azmpbbsPva1BgikrrfuqIZu7rCc7dUSbqjK1/2y8GI/AirrTLth4m4f1SuiaDQ9ZSJdfcUqa9fq9DNSFrGatw5pvullT0mDy/VmautBqoGUwruF4/Tevx+v0xiZBa9nmfbZ//9XSE+PGSRUrUZiCrkusnrOZ41Fli/z4yBcohMB2b2+p6fd17fU6TM0ovIhf9WVeUlyPpWzPmYpsRHqaphVVcPZyWFHrFCtK5RTIl9HN+63ZSqgrGUBqEZsrfbE1ms0EiS+ZbFqkvMl9svGmI5Klm82DpuyTkVbVi7J/2KsZ/9EkGa5U5Qj7bEMbKXtpFw+9LXThYuXa/B2L+30REXnszbmpmn7f1fW3k2kpTZ/5AEzNE/6MiRfZn1LqqImwomqz1u1X6LSifoYV9YxdrKjS6zZbCX3CWbq3zwKYbOXZ4FETNN90+WfqwRTcxDlDaUNMvKhCnsim2IAeb3r1+9zH6zPmJ0q5O+pKrdt8auK0gvpoHgNtWi+PQgWafh+xnWe/101a8+n1ZFoaMXFYUcekeQvvgRXVElbUQR1W1JOKFZVoxPhGPiNYSqh6VI833QUpLf0JmHD12C13rOHK6MkZdwdvP/uoG2VewER8Gm86Q+OL/Hg9ZWA2jtdzcbzeWNPv6zPwBbY/L0JKSFpo5CbZ6Vk8BoqQABIsPsa8qqp2vKIXEu3dYxPGSPvzJLPSEmFFfQ0r6mpYUYmaVhQdnCX3WWA3qkrbKaFb4GDC/SwtWNIRJl1bxJVO8jedp8sdX3w14ym86c5RJr4RQouE6pH8eH318gRNM6tp7Oc4Xm+I4/XHpIiIfCPGt9sz3I1WeQx0W+6tmn5f+7vfgt9XC6bjZCvWAitqIR184QDsWVUryh3SOPEbWVEbweK+lA7YrJiftzGCpYS61w2Tbr303b5INmP+A14zKSg0QG+6AT1yYDr+CBPyRt2DlPghJ5ui4/XnR2d4NbNcL4Xfcbz+L2n5qtZOTCx2w0KNVnkMNDtruJcYqCveV7fedpiIsThw603xPn/2wN976OALB2BPwYq6EgdiH2taUetX9aADNuSxPunvmEbcZ3slLPoyJiS9DlOvCktMma75pjt8sAlMyM0wJd/U6y9SpTtqALcjrWqpruP1SVkp0raDNXG8/pERG2HHZ3C/L7bJMcRA5/Avn1YMdO6yHgglXA8T0RC/z19MYEUdwoFYO1hRd7FKVbStqGnjn+HldgZZUb7OO2SUkBYGU+8PmHzD6cifNY39WtUZd/uLq5f34v7ijMw0NWA4e1rqkDk4Xt/BDuy9VtPMik/KYiCowvH6TF/BDpXf8yY59/V05b4WnI1S9fvcMdDBo57lMdC4HsvttEZYUetwQBbJMlE07S0F7mIriupa/bKi/F17SClh0VcRgXuYgC1hCnaGv3hW1V90J/s+P/o5hWSpW0mgcLw+lDLy2YpFAzT9PjpeR8W8lPHiww72+yooMdBjbOMn6o1W3Xmerdu/i1BBXRykPVUiBuqvLJp2n3R//3mMkjx6D3hJhxVVX7GiiOFBJdXH2KkGSwkNiZPBFPwA/mJVNinrEa9vOsrYpwyOxC4rkNGxDWZHP+SlnsHx+nSdx+td+PE6BaONuWyXyI0EiPvoCF9XDLRmrZ8oNIAQQTeECpDCYv8LL4m/pIlThuJF2gBW1Oc6rKieOJg7BStqjNmrM1sJ1ZTNECUs+jI+hFhVXl4lFp/0mmay7+7t17Mhvf+LsEeE5vH6mMmjlOP1983eiGA9n3O/UolRcp/5mrmvdPAyY/59CAnUp9BAsOYcyLh4ke6lgzTKV0XequswydNVbEVN4laUibWuZithIHj5dC9MxHMwFQeRyYiM/C1e33T0ZfRWTtOx+1J+vD40dYpPkwjFHyc/kMP2blMvMXKn37lzXxOSskNxmaXnTPmqyFuVYEUNUV7cnq0TkpXKsEr/hReVSZdjlLDoqwiTERn5NyJDozt/01GmvtblLqepW28/0qpaIHO/p8nH64ZaAlrL8/r3BUu6qJ56Ei7lyufB77uqVO5rQEPa6WYcsL0Cf7ESXtw/eEwKocnSQd/eE+WQqFDXjLk7TgmLlLFTl7f5my59uutNp1YyRXmqlFY1d1kvHK9fg7Sqb80A2rbP9NZVkayFc2cj2KD7l+PEsJlt1xDAxHASHMGGDp7Pftjc1KN15H62Cye8lYy/HKuERcpIbzo65Wrdfk0ZRaTUqkEjp3K/L67HYuPhdcATKSNpx/ctcWK4BaGc1+BDVnTAqvgSEKR/HCGsM6iGuVe15tGCxTpeCQlDmJZn2L+7ZbOz+OKVvE4hkf/ue/5rAc6lh7CPOapn8e6464pFDyKkU4DQznA9t9n1N0XVMNPGT/CJbMoba2AAiw2WElovhOfPey4GLix0VG1fALJQfKunhHn6azHJ0jT0E6H+kP8yZDyLHkJBeJwE79ashlFbv0nzDJYSmrQcvx6rzgXq1+N03WT9S0jXtPAjEsAaka4ECG8kS+XLX4oK+jWoqNhEvSP0Pj4Yv0PQvRrIpuZQEB7VMA28VsPQumtEnlA9pDFhAcFSQtsFq03ANjQfSSfKrW7/gFckdO01TzPuug2F1Yi98capFKu12YVg+2MIup8G2ZR2VlTT2C/ZD0eiWf/kZ/lhnUVXsJTQouXpGsa+XyVd0zfhRwUFlXlFwvSZAxCyuZFdXf87zaLZnDlDQbL0h12oKlEN0436gKAaZopmNUxh4VlKgUQQ/zZkAB3miR8WXkIJLQS7xFB2V/wiPxkhmy1I2WuGEE68V5Il8heLqSrzUIFxRzCgVcimcilFkVWuqk02hWC99OOhqpQCWWK+lp4TCCUMhqTYf8wyLwmEcJZJP5+XQLL0uCb1yIXCqqjA+B9Ilj5GgNsSkiWlGuY1hWzqJs1qmLi+8/DFq8aD9WUvS1+SQgntrxDBmKE6/UjqqEnIoIkCVeVyHSRLbVGJTyRLRD1iWnxRIZuiahi9JMONpMyXByDVMc9HcE1RznBSQlMA9HET3T+301w8LcHriTH8phOonO/BqSoja/+i6S8SKzkq81Gh/4CfeHm8jZMM33BNvi6yqT/AOkJkUy6SYaOqYQxZTjgpoRpgdlcIQzbax4foOr3mVJWfb7lKF1UlUY8MTZon39bsIKgqY32cz0U/LyKbIpLhC4VVdFTDjJT2nvCFbEpt/abISrCU0JTFaGxsMMYMRNZC5l6FqrICUgDVqSrdJEsnj10FkqWvUbn/oa8kS9zvSxs1TTfZVHE1zFQ7gxksJbQTJsFQzmCMaSrmvGj2iXFEVXkVqCo/1CRZ2vhJe4VkaawefxGhjwcRAjmrk2xqDycZNr4axpR9E0poqmiG38NBsvQLqCo7gGTpDpAsHdWkqpw2fiJrUK0A+Zz3ekILoY42nGwqtf9rOsmm7qW+FUaRDFuxg+GkhKa8xazYpCCMETBWIFnaAJKlK1CJf78mVSU1DR3Q4y2Q8u5DfmdzWi/V7iHE8T5CHZ/oIpsakT5GIZtaEgS8AhoynJQwIKDC7OaAlbDoGDghaT6oKiuBqnKGJsnSid9ikN/5LfJRv4XfdwjduDrzbBdvLAjUj+LokSuIZNhAsqmwOJgJM5kOueUapoS0ck49MiFjGLGU6yJZ2r6luWbDnZq1DnGSYfSjQMjkaMghXGLC4ksYyrtn3twNVcKir2KDRnsUkqX2+Lc8VX+R6hc9XcSCQFUO6DsBsqkrg00ybBT8QgmNQlI8RzcCyNNcC/byaiBZSvFKVel+YnGj1Qzu91HfCQddQgkdtJmhthTOYp6H1gbEaq5GPUj/3rLNlwh9xCAEMtpAv882cAkltM1WhOdEeGsDsJojpSyujCKS+flkxhT0lbgNoY8DFiJkijmuNn+hhBburBjKCwKXX/FTmb8WosD48ivwKbTNpSudz9fZCiX0FTHxe7MQsJMsii+hWbtso+ea8ka10fqMnIrjsbLT28fIjRPPEggEgoD4EgaCnrjXcQiIL6HjtlQsyK4IWPr1sRMIwTJHHf92s9Mmh/hcHC8rwVLCEJcLx08/GF+lYIxpi40USmiLbRCTsBkClr4QhBLabPdtMh1LhVBZs9qYwhy1iVCIaViLQDCU0NoV+jeaKS8E8SX0bzOcflcwlDAYY9piH8NJCU15i9liF42fRLhjZen6w0kJjRdV5z7RUiEMIRhNwUUoYQhJgIVTDUbPRguXpzHUJZf8aeVkhBJaibbNxqLmmWWmVA4NiU7/XsNmU7V2OocPXcPQA9XDJb6E1u6Es0cDme4g1gjNM6mdWcmL+F2+WNcSXJ+/gPPzTmejcPHq0FatvhzX4Wv2xrRBvDV42UsoYTgJhFlrhWL9E01UToFM91XVHg4kgAVno8H5uQ509Za1NzNrzVrPBb1+RXnU8FfQVm0P2/F9LKvpoZvbcf4UUyxHUx6qtWjxd+sRAJlutEKmux5NVKqrKqB7asT1SZyfGz9xtzebBLp6FRo0Q9ZjyldGa2awCAayiIgCtnR+Cl+vJ6a383ARo0DdGBNzROt5/vxdKKE/qAV+j2UxMerzgP6A6SDT/cUrme6FQs+rqljFpYyzpoxBe7Nz8uKc+wJffvCfQKY2LIIzsAhme22nffIXxn47xNg6tA036QqWElomhCbhFhKP5QqDvoBQoHGqZLqkfMRoVif6ECNiJfrP01W9FmPU3iy5z3zQ1e9He7ObQwKEUpOkzsFg+P6cdWuzDhZBhGZbtccmpEnHmURtw81ab7CU0Kz1iOcCAVIQ6gNICsMVhxTI00UKd+QgkekmoInKlWznsYpob/aMDrr6q9HebJM8qN8StDerEwqgw++rAotgHHUOZttyb9Nsp92x+5ug168Nev2JZq9PKKHZCHt+vimWABQiUu6fsJQUhFEfQDr59NTHwU2mO3jUswqZ7iKaJjg9/wS35394e7OWbT7WbG+2flU82NCOypkZacGBUd+ovENwTEQ+LIJ0TYsgsvYB6kCMtmp9QK+vYhboG1fvr4QS6kXK2N8ZroRQhNFQiOPss496qB4wkOn5HUzPlm0+5GS6aelPeSLT5e3Nspe2Q3uzu7Dsv3S0N3tOjomQ0d6sp7EwBfY0fhIc2+QodQjW1VaN6PU/3xJDHYgDG9m3u4US+oaXUb82TAkh+L3kKCazaeOf12yiUqnKb1CsO6FgHfSQ6aK92TrQ1VdgmWjQSX5j/mnP6ydzN6ImtTdbLLdttR3tzW40Cih/nkMdgBFaobZq6xFqqaPq9xVbBBODSa8vlNCfXQ78noCVEILeAgK/C4L/pqbfRwo0Y34/9AusA8X6n6/Tl+7vPwftzSqyPgNnavqLhw9ei/Zmm+Vhyf9FRs5lvo4VyO/5SfCE8eOpAzBCK+pt1dwWAXUUPnqkLiyCtGDS64eTEgYs+IEISKl7/Z4LBLuGnDIwG4L+DTt8sKGm35eYMh0KVE1KSHojkPmDrv5PtDdL4e3Nrrsxl38ZPYU1KM5GIY2Vb/VjkVEn5RmZI3WOG1CcEBZBPD8JfjXjP5oWQfWaB2ARtKWOwvD7TIn96Vwz/1k4KaEvuJj9W7+UEAL9GAT7d7Z6eYJXv48UpGns1/D76kNxhkOB8oxakETtzVasuZktWduJFRYWqvqLlHVDyvj86Ay5fqQsf/BeN405+KWEOAmOpQ6/sAiW6LYIvtgaA4tgvVGYBPocoYSBImjB/RDgOPmqCjIEeorXwDIpX7nyp6AgHdEHsCX8vrL9HQyaL9qbrZZ+PHQJ2psN8drejFLAKldlLLHLCrlru2+Qn9lAZQpqSujx3/lJ8KB+b+Ek+GtGHX61ToKpUzC1VQvQIjAIvoseI5TQDFQNeiYdcMgdbv8OAvw2o77unnIaaSw6MKFTTyiE9N2+y6AgawyaguZj0N7sFUbVGHF95/I5UIpX6YvCJKQku7e3QH7mbuRpvkxxu1I/010+VXQS/NG79+qwCDbBIvgbdQoOpt/nDUihhJpiZsoPvJpeENCqcuqQLDrgYAf2/l0zsByf9Br6/FXjChGES4qMypMyXx4If7ERu7r+j5r+4tL5DyNfM19+LWt4ien+pTL1onw6WAR3c4tgaprrJNhzpYMrA6hc+WOKRXALLAL8g30voYTB2RvVtz4EczAENI+tWJSs+ZZveN1WCH4T9PcbZKTf5y8k8Bd3S2s+vQ69Bu9heScZo7xLT5fbXxybMk2+Nvo3xPNuY+XxtfT426r5MGEbwiLYCovgHV0WQea8gbAIaltpEfiLGd2HCs6wv/w6EAgQtbJjNq0ny5WqnGDjh9Xkyqd2kWBXqXkBgt5D6tRlBVvZKMCpGH87nxcScHCQlMqGpr7A6kd6/mqRiXqhsBbyOD9njZsdwsEKffWKtZFM8OfHv8R2bIlitaNdJq2ni0zgH5Fk/fjIV9kT40ba4YXkC6riS+gLWmb+tlx5CYHlmpp+35jJY6Sdv5ZXBN3MGQX8bGloaib8xQjWsfsiTX/x9MlomJAXyyP5kqdORHHl81Ri5E4+b/L3b2ERNJYmTkkONQUkkIUSBixqfj3A89fXU54nveXpwKNrrwUQ6FoQ7Ml+jRikm+Av5iMPM4FRFk3dettV/UXX2suGbjxhQr8ki+CPfJlCJQiZtIApvCtISwx4WKGEAUPoxwN++/VKRlwu3i73W/7q+j9AgG+Wps9MgkC76rtD8KJSIFRqXM/mIqhOlRvFJVO+uQPuk+D06cOlvSfKUagkBOG4aMpCCS3cQRxA3MWpJbblNvNoXrnnQgJ6Cokcc5f1wkFHUwiwpQnFZkIixfVYRvV5bET6SOXgBo3pmUpFcYmZFFsEC2ERROIkeLqZ87Ty2UIJLUCbF5Imxn+IA4i1nFqCqtU9Xe6E4hHpT0o/n5cgsIstmF5QhkCd3lR2/4gZiHFWxATUY4Rui6BuvV2wCG6CRZAIiwBHr865hBKiBtas7SROFhSSPs0LSTdtaK8Z77uz87tIKI6GgD5n1pzs8FzE+7rKjeucYTlzHkasj76EnuWQFLBc+dOwCPrClG0Mi2CzHeZv9BzCKUThV76mv4CDWiIRCcULEPNz5VB6ukjIyD9q0vxntvndnqhj+4rNet3fIW1/H1EKsuHJCxHva4VwxAXFIlCXQTLJM+c/Cosgx/aLC2CC4ksYAHiebkVCMXF2HgG1xALNhGIXtQQVktbjCujQC5UfrgwgohTcvb2VYhGUlD2yRsgkLWuVnD/veBkN1gIt/SpZIdtIKI5CIekqJBRvZPlnLtdMKB40clIwC0mtwITG4BlASGtTyQAiObgEfvIl8A1JFj0d0DhOVkpjHywltEoG9IwTkE/IC0kzMx5HIekxFJJ20qSWuOWONfD7rgCXy+N2TSjWA5rWbxS/709kAM30kucp8RPSwsIzbOCwF6CIZJrqTuTWmkOo/F0oYQA7hULS3qxBtQJQS0zQLCSllDRXIWlHFJIeDWBYW99KpUooWfoSft+7rELFCpoZQI9NGIuSqOrs7nvmIjuG1lb6yye+hLbecd8mZ9hmKtQSO1FImsMTir1RChZTS0TZqZDUN+i0f80r/lOHzKRSpRJ+X9kb3fE+SmWjeF/qqOf5jwphkrouw/ZJe9b2+IX4EvqwD6WoJRpp+n2JKS/ZtZDUh2Vr/hR+XzKv+F+xaLBm5YcrA+gmSmVzWrxPEyiVHwgl1Ikc50rRTy3xlVJIOtThft/diPedg9+XpUklT6VNSFlTMoA8xfsC8s11bqMtfyaUUGNbiBuFODWJK0WzkBQ17koh6a12LyQNRBp5xX/Xdht5fV+Fipdq+n1jJo+U9udRBtAyL+OGnRnqxkIooYpU4IChEQpJfyBuFM6pqU0t8TA4OiNCpZDUHyUkCkNQGc7mFf+7t7fUzADq2H2xUvkxVcd4akro+C+kUMJS0gFBi8ABw2wcMOwEtcR1moIWnzRboZbI0iFoIfsTXqBLOZsr3xqo0+8jKvlePlR+iC9hyEpH4BMvikvhgOERCNoZHDBoC1rD6zbzQtKMFx8KxUJSvbBxpjdQFsIcf0GX35f9XpzTKj/0YuXv78SXsHr1fJQYteYHDGNBi+eNQMhVSMpALdFNWrn2plAuJNUSGB6G6XD7Ns70RpSFWub4mMmjuN/XCX6isZcwR43F02ZPo7Zh98VvQonRp/yAQY3DxF1IOmbyYygkJUF712YrMWw6PAwDCnvO8H1g7/Wa5njXXq8rft8UwyYRZg8K7y8hUSecPuniMPFOLfEGBC0K1BIvOFk+4Pc9ysMwRGGv1jq6uOJ/u1Lx/4APfp83+IRP6GThUtamn9eluJB0p1JI2g+CxnOqnHiV8PumaprjFO/Lfu9u+H3XO6niP5j7Gt5fQk/IE7WEK7DcG4WkTZxaSEpLV/w+CsPo9fseU/y+lcEUWqeNLZSweEdlTj40In2MElh+y2mb7V6PEu+bp/h92mGYrr2yFb/P0eZ4sPY7nJTwPPvjvDrO585KLDFlFhKKQ4pS0FfBUfw+ivc9oMPv+1Hx++4zyO/zdbph8fvwUcJWt65n3ggDiXwpZ84g6nWgo41XyAkH9/tc6Xfafp87DANKewv9PnEwY7FUWR77QUxvL1uc09drGy/qkUClSdTGq22rH+EzNbMYF8OHuyjepyf9juJ9Dg/DGA5ygA8Mny8hgJLu7ZODqvbLQMu+RJOW/fDBJvCZtqAH3jLqhRcgzpbfrvh9vsT73Azfdov3Of4LGVZKSJqAqvZTyGm8l3wdtPHaqdnGa/2q7qCuOI5e6M8ShaHl2uTHgCX8Pj3xPgrDhDzDtx8w2eYWs5XQcrNTL7Lk6yDW1QQxr+48FU2tjRf5ihS4fjXjCVAYnuNUhja9eNmVq6Ovtt93/hx1drqHMLDQ77MpcsGdltlKGNzV6RgdKWhvkw/E0qcP8+ovEoUFpbmBylC+rdlPyDf9p47HW/ITpaPv97zsSk9HX/L77NfZyfFmp5owhL0SuoFBb4MZiIVVZfFJrrbPRElf+nK3fT557BrWus16UBx+CIp7aGZwLvh9NeWUgQuUjr5NdaTfueN9dvP7ggOgTUYVSlhiIxALO4vSJFfb56ax32j6ixs/aQ+K+wNy2qgXifrQyj1V/L4TbPXyRM14X8PrvhfxPit3x7exhBJ6wIu3fV6+KhZUFf/Gn89xZfR0uf3F7Kxh8BcL5DfmPeQb/L7/2o94XxzKrm4Qfp/vWFt1h1BCL0iDqmIVKCsqscx5g7giFvfUu/gu8hepEiO1/yy0PvtVXrf2X0ZvoOL3uer79MT70qc/osT7jK7vM3ppYf+8YCmhbU9NPUmEdH//19j+vCpIa3tJ1V+kG1092Guznu3WyN07fwmemoaBShhilLXh9y1U/D7t+r64vnN5nudDKS8HOra43xoEgqWE1qzOwFFAYfGHNCFjKKgM67Fb7vhYM9i/LbcVeGp2yaOGv4oDFL+C/aDXH40Y5a/w+/rq8Pu+hd8XK2W+PFDkeRq48RY8ymwlDKkvnh68QWX4M6js2xGlPatZ6xfVwxu3v7h0/iDWKOo4+GuG6Hk+/Qb0+r14vG9q2vOa9X3n0d6P6vtWrm0Bv+8bvWPY8HeOkxW9GJuthHrnEXK/I0p76YutV1Frs1I92C9eC+Wjkpk6fthLIEy6QI1S1Bar0OvvAr3+m7rifenTUxDvI7oNUd8XchJUPGGhhAFuHvJRF4LqviIbjO66avFFGoOIkipXRblUl3dBoPQ9FO4G99AwV6vD78vm9X2HDzbUjPfF9Z2n+H0zA5y+nW4XX0KTdkMNWEcBDqr7P6W09CeRHB7J7uy8TNNfPLC3KRRuK/zFLJipQ8Hrcgp+X4IOv28LYphN4PcNcKDfFxay4knPgtMuu1Il6lPuuAvJ4eDFYPH4yt3Ehg9+i239qgFPdStNIlUBeeCUj7p0fjIr/FO9nTYhRDmt5ZEHQDSLxPK2spHjcOMLKl8+7PoSujfSenO0Mnyk99/pi6P3Os6UJlRqwKwEP01DnhxOfDVqyeHkL6q1VXPTLKZPH6LwujiWZpHLQU52Mqvh1yFyyIuR9UpIX4HtW27C0ftR3uHWwRdPDgchLhszebTX5PCSGLj798Unvcr79z2U8oqDIaKT4N5yFHrVZ6O9Gr2Uyl6O/0Kaq4QR1fI9Ukq4zTF0uOV0EiuW9XSyoIGvNIMnh8f1XcCVkSgVPV2UldPwum/g912LHNZkJ/fvg8neHOwFdBKcw012TxYBcQJVrXrGybJhydqQOfIpvemQzuX5v6b1ZP53F51Ec0smFcRBKItG/kfzwzKtuyQmhMEH790TxKlZMrRyEvwGTmFk+dpodbloXMclF+cKKlgysSAOYu6XEAtDIvTtOL6foVke5KKT+BZH9YuImiGImJg6NCWHs+Y3f8koyF7yAgkVma+mDh7kh6PyY4RyEpykeRLcNPYH9sORK3Hy7IUiL8gLMmh405WQ5ol0r2FKedDXmuVBq5f3oRZcvDOuU6/Cv0KCJsMo+PGFv1vp7JSpo9FqAapXOuPl3RSnzYeMmoOdn2OJEnJFdJUHteTlQfQVUCsPIuecju/RGZc2jjbQzgD6ObewqCKH6V2/qKOvns5Ok7IeQdVKZVSvfOAnriF5m2VK6EaHlwch1YpNQi4lHVLQUbyny5VhQvSD7yDD5Dts6N9CEmHPk0YnGude3O9LHZKFBPY9ujr60klwXl61cK38sFwJi5SRjt7z8iqDTmKWjgyTv2ND9/KKhLw8aGbIX479EiIDKIX7fSsWJWv6fQ2vc2UA0UlwREReyO+qnwsImhJyEzUiogAbMJj7i1fX367pL1JFAjbLl4oEP3Ex+zZHpe0RWChk7oDTznw0Wn1Fs/LDxfB9Dyo/boSbstNssO3+/KAqYdFXkfxFtNrSlWFC/uLYlJew4XnY+HZ2B1hlfo4JQMNNaCDHdfgChcyrkXpWRUej1dFKxf+KEN07w6dtCyUsUsbiDJMxXv1FKg0qX74qNv4jxCG/IkEwHBlzHxjyX0JyC0BwlQk3YTfb/u2tmpUfXXtRo9VaPHFBXBchYCslLFLGoamTsWE1QFe/WNNf3JZ7CwkCBGJGCPmLIa2EILTqz2Lgw+XMGcFNTypgLn1d3GiVGL6p0aq3ljxhq5q2VELuL0ZGnQZdfS/qlMsia+/XrGDPznqEBAMCMjBsd9PkhYPw+A5k+ZwAodVc/uXznOvpIsQ6cpAarfZUGq3mmjy1kH68bZWw6KvY7MbN0udbrqHOuV4r2IsZz2ZDUH6HwLSx8c6E1JcQBMdXyYnx74Pw+H/Ie62p6vcRYTKFnUakj5WOM0mK67HUxntgm6nZXgmLlDGux1u0sdjgJ3QwntWAwHwChuzVJEC2Qbt4IiGhhNQAR35u3HgQHB9kmzZ05qZn6dpIWpO78oMKmo8eiUaj1edtiLltpxQySlikjKmjJmCja7HW7d/z6i+SwGz8pAMJEASJOipZypBt2x3XOTE0vulLDXDYrCn/0fT7Imv/xDbntpJmvR6PVLPDOocQP1MQCDkl5P4iWpVJ8xZ2pY0H49nPmv7irCnUUakAgnWfTXbetl9CeXNuLBre7EPjm4WqJUYEotvvA9EV3IX6UovYjTbBNuSmEZJKWPRVxMaD8aweGM+SNP1FV0el+RCw3RC0FiG3UyZPGEwHUXL/hGWsRezX7OSxGNWQg9vvGzRyAgiuKnGiK3EFhEBIK2GRMt7bZwEE4lI2aOQkzZKpk8caQNC+QQfepRA88NeH98X9vsyMMWA6OMY++6i711QzOnRp2WY1CJD/Jj0x7gmUGTmSK8hqiXCEEnITFXVnEIzHISAxEJR1qhXs7qr+9at6QPB+gwCOtRp0u4wHRoN47vdNGz9J1e+jyVLFS6UqR0B4fJeUvbQTCJDxD+IyCgHHKGHRVxGtyiAod0Fg7uSCo9VRadr4ibyCmwTSuiuoPiFvLtO21Q5QSyzR9PsIvxnzk6TcHXVBeLzOOojCZyTHKWGRMiKmRYKDjkoPckVUK5lyd+CFQCoUGzc6dfsvaip6+GBjTb8vMWUaGuFESAlJC5yKiR3W5VglLFLG+/vPgSBVZX0G6qXY2AyKjRynUWyAqSAVJUb6moo2jf0clS0NwYiQikoXlDyIy0wEHK+E3F+MiDirUGw0RgfejZolU6uX91YoNh41E3wrnk29L+SYCBlMBS9oUksUFuaB+aAjGBBao8RojxXzE2Mg/yGcQIBg7YKAtYKgdWKFoL7WptiYqlBsdDMYJ9OLejmrGxgJqPeFrqaik7Ieln48VA3MB2sMXqt4nAYCYaWERSZq23arIXAVQbHxiE6KjRUQ6K3EmWJ3iSIzWqGW2MUO7P27ZolRfNIchVoiy+5rc+r8wlIJi5SRutnmoQNvXN/XNUumDuy9gThTQLHxCgS9RoACYcqXEIwDD5MZrZNaYrNCLfFgOFNLBLiPhtwe1kqo+It/oMvRAySQOik2iEPld86l4v9lqBISwwDIhM+AceBlTWqJ8+fOg8EgDtQSNwlqCf830Mg7w14Ji76K4DpRKDa6MeJA8dbExUWx8QooNs5AAdr7sSGG4M6pJbp3Xk8MA5hDhA5qiUfBdHcpSIbf8WPO4haTEDBEGEyaW1AeS+3HiAMFTVxG6aDYiIACfAhF+MxHio2AvoQKtcQUTi2xLfefmn5fx+6LwFQQBWqJzKCAKgb1ioBQQhV4ILBTFIqNNzX9xW25/1AoNl6EgnjgeigziN9KyJkDiB4wZ85jmiVGdevtAjNBLBgKEsBUcELogj0REEroZV8Uio0+JMjwF3dolkzlzBkGio18KEo/je32WQnBFHA7GANOglpitle/j0qMqCfi3GW9QC3RmHol2lP0xKzcCAgl1CELvOnnmk+vJcH2WjJFnCvEvZLa/79ybJNfiJNFx+O9/gTMAPVALfEemAI2gFriMh3UEmPYzmOVQC2xONCxxf3WICCU0AecSbAVio00TYqNgrPRxMlC3CxQpOhSw6g0KCz+lUIt8RSYAQ6AWuLfmtQSrduvVKglJosSIx821QY/FUroxyaAQ2UiBD4KFBsrNSk2iJslJuYXUGw8XYJiw2u7LzAAJCjUEk9r+n2RtQ+AYeAWMA3cLagl/NhMG9wilNDPTYDAnyDBVyg2DmqWTM2a8hSn2HA1Ai3b+DIKVPKbc29GA9EdYADI5manWj/7YmqJBFBLxIBaYpOfyxC32QABnw8IbDBnW06BEyMRL0tEhLryECHuqSOMVanpiTD3AhS5HKsNy5UKjz1dRC2x81fGQFzFRo59VpidthQFnycllNBnyNRvgLl5CZsy6WlGFf6N63hmpvZnPFLebSDTTYxfyya88KCobPcHRPveI8xRA/cGX6a/QLGRplBsrFel2PBlTBe1xG/EFADGgPZCAX0BLzR+K76EJu4TQhR3seSk5TAzq6uGFtTG5/E+tOzLnPeQdD9ig+JyLALiS2ji1oKT5WPpu301oEgD+cENKZbW5aYUTEyZzikFhQJqISb+LhDQhwDS2Sqgc9QrYHiS5cZ1ZGS/XPxf03oyJ5xytXprrO+p4lcCAYGAzwiQgkHRNnGFI2W8NtqlfOhyi4qMzj4/UNwgEBAI+IcAKRyyaTaA4W0fck0H+fcUcZdAQCAgEBAICAQEAgIBgYBAQCAgEBAICAQEAgIBgYBAQCAgEBAICAQEAgIBgYBAQCAgEBAICAQEAgIBgYBAQCAgEBAICAQEAgIBgYBAQCAgEBAICAQEAgIBgYBAQCAgEBAICAQEAgIBgYBAQCAgEBAICAQEAgIBgYBAQCAgEBAICAQEAnZG4P/mz9TE/jGMFQAAAABJRU5ErkJggg==;" parent="1" vertex="1">
                    <mxGeometry x="454.5" y="364" width="42" height="42" as="geometry"/>
                </mxCell>
                <mxCell id="20" value="" style="endArrow=none;dashed=1;html=1;dashPattern=1 3;strokeWidth=2;" edge="1" parent="1">
                    <mxGeometry width="50" height="50" relative="1" as="geometry">
                        <mxPoint x="299" y="266" as="sourcePoint"/>
                        <mxPoint x="299" y="266" as="targetPoint"/>
                        <Array as="points">
                            <mxPoint x="299" y="432"/>
                            <mxPoint x="135" y="432"/>
                            <mxPoint x="135" y="266"/>
                        </Array>
                    </mxGeometry>
                </mxCell>
                <mxCell id="21" value="" style="endArrow=none;dashed=1;html=1;dashPattern=1 3;strokeWidth=2;" edge="1" parent="1">
                    <mxGeometry width="50" height="50" relative="1" as="geometry">
                        <mxPoint x="496.5" y="268" as="sourcePoint"/>
                        <mxPoint x="496.5" y="268" as="targetPoint"/>
                        <Array as="points">
                            <mxPoint x="496.5" y="434"/>
                            <mxPoint x="332.5" y="434"/>
                            <mxPoint x="332.5" y="268"/>
                        </Array>
                    </mxGeometry>
                </mxCell>
                <mxCell id="22" value="&lt;font style=&quot;font-size: 16px&quot;&gt;AZ-a&lt;/font&gt;" style="text;html=1;strokeColor=none;fillColor=none;align=center;verticalAlign=middle;whiteSpace=wrap;rounded=0;" vertex="1" parent="1">
                    <mxGeometry x="147" y="275" width="40" height="20" as="geometry"/>
                </mxCell>
                <mxCell id="25" value="&lt;font style=&quot;font-size: 16px&quot;&gt;AZ-c&lt;/font&gt;" style="text;html=1;strokeColor=none;fillColor=none;align=center;verticalAlign=middle;whiteSpace=wrap;rounded=0;" vertex="1" parent="1">
                    <mxGeometry x="446" y="275" width="40" height="20" as="geometry"/>
                </mxCell>
            </root>
        </mxGraphModel>
    </diagram>
</mxfile>
